<svg width="32" height="32" viewBox="0 0 32 32" fill="none" xmlns="http://www.w3.org/2000/svg">
<path d="M17.9875 30.5274C16.9016 30.8359 15.7632 31 14.59 31C7.08447 31 1 24.2843 1 16C1 7.71573 7.08447 1 14.59 1C21.5203 1 27.239 6.72567 28.0749 14.125M2.69876 21.625H6.66252C8.22618 21.625 9.49377 20.2259 9.49377 18.5V14.4375C9.49377 12.7116 10.7614 11.3125 12.325 11.3125H15.1563C16.7199 11.3125 17.9875 9.91339 17.9875 8.1875V2.875M26.5487 25.4095L30.439 23.925C31.1683 23.6467 31.1926 22.5183 30.4763 22.2019L20.8309 17.9429C20.1599 17.6466 19.4887 18.3692 19.7404 19.117L23.4146 30.0362C23.6831 30.8341 24.7051 30.8359 24.9759 30.0389L26.5487 25.4095Z" stroke="black" stroke-width="2" stroke-linecap="round" stroke-linejoin="round"/>
</svg>
